<svg width="87" height="48" viewBox="0 0 87 48" fill="none" xmlns="http://www.w3.org/2000/svg">
<g clip-path="url(#clip0_651_994)">
<path fill-rule="evenodd" clip-rule="evenodd" d="M40.1694 37.1088V33.12H41.4413C41.7755 33.1038 42.1035 33.2141 42.359 33.4288C42.4729 33.5341 42.5624 33.6628 42.6214 33.8059C42.6803 33.949 42.7072 34.1031 42.7003 34.2576C42.7037 34.476 42.6427 34.6907 42.5248 34.8752C42.4083 35.0518 42.2395 35.1881 42.0418 35.2656C41.7607 35.358 41.465 35.3987 41.1692 35.3856H40.7394V37.1136L40.1694 37.1088ZM41.3415 33.6256H40.7442V34.88H41.3753C41.5687 34.8939 41.7606 34.837 41.9146 34.72C41.9813 34.6598 42.0332 34.5852 42.0664 34.502C42.0996 34.4188 42.1132 34.3292 42.1062 34.24C42.1062 33.832 41.8502 33.6272 41.3415 33.6272V33.6256ZM44.2394 34.4736C44.4248 34.4674 44.6094 34.4986 44.7823 34.5651C44.9552 34.6316 45.1128 34.7322 45.2457 34.8608C45.3763 34.987 45.4792 35.1388 45.5479 35.3065C45.6166 35.4742 45.6497 35.6542 45.645 35.8352C45.6499 36.0134 45.6161 36.1906 45.5458 36.3546C45.4755 36.5186 45.3704 36.6656 45.2376 36.7856C44.9613 37.0401 44.595 37.1758 44.2185 37.1632C44.0352 37.168 43.8528 37.1367 43.6817 37.0711C43.5107 37.0055 43.3544 36.9068 43.2219 36.7808C42.9673 36.5273 42.8243 36.1837 42.8243 35.8256C42.8243 35.4674 42.9673 35.1239 43.2219 34.8704C43.3569 34.7413 43.5164 34.6404 43.6911 34.5733C43.8658 34.5063 44.0522 34.4746 44.2394 34.48V34.4736ZM44.2137 34.9536C44.0998 34.9486 43.9861 34.967 43.8797 35.0078C43.7733 35.0485 43.6765 35.1107 43.5955 35.1904C43.5155 35.2738 43.4531 35.3722 43.4119 35.4799C43.3707 35.5876 43.3515 35.7024 43.3556 35.8176C43.35 35.931 43.3684 36.0443 43.4098 36.1501C43.4511 36.256 43.5144 36.352 43.5955 36.432C43.6798 36.5118 43.7794 36.5739 43.8884 36.6146C43.9973 36.6553 44.1135 36.6737 44.2298 36.6688C44.3457 36.6742 44.4615 36.656 44.57 36.6152C44.6785 36.5745 44.7775 36.5122 44.8609 36.432C44.9886 36.3109 45.0759 36.1538 45.111 35.9818C45.1461 35.8099 45.1272 35.6314 45.0571 35.4704C44.9869 35.3094 44.8687 35.1737 44.7184 35.0816C44.5682 34.9895 44.3932 34.9453 44.2169 34.9552L44.2137 34.9536ZM49.4686 34.4928H50.0354L48.8713 37.168H48.6991L47.9198 35.3344L47.1455 37.168H46.9764L45.806 34.4928H46.3678L47.0585 36.0928L47.7315 34.4928H48.1227L48.7892 36.0928L49.4799 34.4928H49.4686ZM52.5469 35.84H50.6793C50.6822 36.0664 50.7727 36.283 50.9321 36.4448C51.012 36.523 51.1069 36.5845 51.2112 36.6254C51.3154 36.6664 51.427 36.686 51.5391 36.6832C51.8844 36.6826 52.2201 36.5703 52.4954 36.3632V36.872C52.3463 36.9702 52.1836 37.0462 52.0124 37.0976C51.831 37.1468 51.6434 37.1699 51.4554 37.1664C51.2037 37.1793 50.9539 37.1163 50.7389 36.9856C50.5574 36.8639 50.4096 36.6988 50.3091 36.5056C50.1958 36.2855 50.1404 36.0406 50.1481 35.7936C50.1326 35.4362 50.2553 35.0864 50.491 34.816C50.6022 34.6921 50.7394 34.594 50.893 34.5288C51.0466 34.4635 51.2127 34.4327 51.3797 34.4384C51.5388 34.432 51.6973 34.4616 51.8432 34.5251C51.9891 34.5886 52.1185 34.6842 52.2217 34.8048C52.4418 35.0828 52.5528 35.4307 52.534 35.784V35.848L52.5469 35.84ZM50.6987 35.5312H52.043C52.0398 35.3543 51.9736 35.1842 51.8562 35.0512C51.797 34.9941 51.7265 34.9497 51.6492 34.9208C51.5719 34.8919 51.4895 34.8791 51.4071 34.8832C51.2373 34.8766 51.0718 34.937 50.9466 35.0512C50.8171 35.1814 50.7335 35.3498 50.7083 35.5312H50.6987ZM53.6723 34.4896V35.0848L53.7013 35.0368C53.9546 34.6325 54.2073 34.4304 54.4596 34.4304C54.6963 34.4482 54.9175 34.5538 55.0794 34.7264L54.8041 35.184C54.6729 35.0382 54.4913 34.9468 54.2953 34.928C54.2084 34.9294 54.1231 34.9519 54.0468 34.9934C53.9705 35.0349 53.9055 35.0943 53.8574 35.1664C53.7328 35.33 53.6675 35.5308 53.6723 35.736V37.12H53.149V34.48L53.6723 34.4896ZM56.0744 33.12H59.4312V33.6304H58.0289V37.12H57.4525V33.6256H56.0744V33.12ZM60.2828 34.4768C60.4681 34.471 60.6527 34.5023 60.8255 34.5688C60.9984 34.6353 61.156 34.7357 61.2891 34.864C61.4197 34.9905 61.5226 35.1425 61.5913 35.3105C61.6601 35.4785 61.6931 35.6587 61.6884 35.84C61.6933 36.0178 61.6596 36.1946 61.5896 36.3583C61.5196 36.522 61.4149 36.6689 61.2826 36.7888C61.0057 37.0432 60.6389 37.1789 60.2619 37.1664C60.0786 37.171 59.8962 37.1397 59.7252 37.074C59.5542 37.0084 59.3979 36.9098 59.2653 36.784C59.1391 36.6587 59.039 36.5099 58.9707 36.3462C58.9023 36.1824 58.8672 36.0069 58.8672 35.8296C58.8672 35.6523 58.9023 35.4767 58.9707 35.313C59.039 35.1492 59.1391 35.0004 59.2653 34.8752C59.4005 34.7478 59.5597 34.6482 59.7338 34.5823C59.9079 34.5164 60.0934 34.4854 60.2796 34.4912L60.2828 34.4768ZM60.2571 34.9568C60.1432 34.9522 60.0296 34.9708 59.9233 35.0115C59.817 35.0523 59.7202 35.1142 59.6389 35.1936C59.559 35.277 59.4968 35.3755 59.4559 35.4832C59.415 35.5909 59.3962 35.7057 59.4006 35.8208C59.3951 35.934 59.4134 36.0472 59.4544 36.153C59.4955 36.2588 59.5583 36.3549 59.6389 36.4352C59.7247 36.5157 59.8259 36.5783 59.9365 36.6192C60.0471 36.6602 60.1649 36.6787 60.2828 36.6736C60.3988 36.6781 60.5144 36.6594 60.6229 36.6184C60.7313 36.5774 60.8303 36.5151 60.914 36.4352C61.0411 36.314 61.1278 36.157 61.1625 35.9853C61.1973 35.8137 61.1783 35.6356 61.1082 35.475C61.0381 35.3144 60.9202 35.1789 60.7703 35.0869C60.6205 34.9948 60.4459 34.9505 60.27 34.96L60.2571 34.9568ZM63.9858 33.12H66.2671V33.6304H64.5638V34.848H66.2076V35.36H64.5638V36.6064H66.3202V37.1168H63.9858V33.12ZM69.0331 35.2V37.0992H68.5098V35.632C68.5282 35.4217 68.4869 35.2105 68.3907 35.0224C68.3431 34.9606 68.2804 34.9119 68.2085 34.8811C68.1366 34.8503 68.058 34.8383 67.9801 34.8464C67.8745 34.8448 67.7704 34.8719 67.6791 34.9248C67.5608 34.9961 67.4553 35.0864 67.3667 35.192V37.0912H66.8435V34.48H67.3667V34.824C67.4632 34.708 67.5822 34.6125 67.7166 34.5432C67.8511 34.4739 67.9982 34.4323 68.1492 34.4208C68.3114 34.4196 68.4707 34.464 68.6085 34.5489C68.7464 34.6339 68.8573 34.7559 68.9284 34.9008C69.0298 34.7616 69.1609 34.6464 69.3123 34.5634C69.4637 34.4804 69.6317 34.4317 69.8042 34.4208C69.9245 34.4178 70.0439 34.4414 70.1539 34.4898C70.2638 34.5382 70.3616 34.6103 70.4402 34.7008C70.6207 34.9477 70.7053 35.2511 70.6784 35.5552V37.1088H70.1552V35.544C70.1681 35.3657 70.1204 35.1882 70.02 35.04C69.9738 34.9821 69.9143 34.936 69.8465 34.9057C69.7787 34.8753 69.7046 34.8616 69.6304 34.8656C69.5103 34.8721 69.3934 34.9056 69.2882 34.9635C69.1831 35.0214 69.0926 35.1023 69.0234 35.2H69.0331ZM71.3723 38.4544V34.48H72.2884C72.6841 34.4564 73.0744 34.5802 73.3832 34.8272C73.516 34.9517 73.6198 35.1036 73.6873 35.2722C73.7549 35.4408 73.7846 35.622 73.7744 35.8032C73.7815 35.9812 73.7527 36.1588 73.6896 36.3256C73.6266 36.4924 73.5306 36.645 73.4074 36.7744C73.2864 36.8995 73.1403 36.9981 72.9787 37.0636C72.817 37.1292 72.6433 37.1604 72.4687 37.1552C72.2764 37.1508 72.0864 37.1135 71.9069 37.0448V38.4544H71.3723ZM72.2771 34.9648H71.9069V36.5808C72.0627 36.6607 72.2354 36.7024 72.4108 36.7024C72.5232 36.7058 72.6351 36.6849 72.7385 36.6409C72.842 36.597 72.9345 36.5311 73.0097 36.448C73.1385 36.2963 73.2196 36.1103 73.2428 35.9131C73.266 35.7159 73.2303 35.5163 73.1401 35.3392C73.0712 35.2157 72.9662 35.1158 72.839 35.0528C72.6617 34.9843 72.472 34.9532 72.282 34.9616L72.2771 34.9648ZM75.6211 34.4736C75.8059 34.4675 75.99 34.4987 76.1624 34.5652C76.3348 34.6318 76.4918 34.7323 76.6241 34.8608C76.7556 34.9864 76.8592 35.138 76.9283 35.3058C76.9973 35.4736 77.0303 35.6539 77.025 35.8352C77.0307 36.0133 76.9973 36.1906 76.9273 36.3547C76.8572 36.5188 76.7521 36.6658 76.6193 36.7856C76.343 37.0401 75.9767 37.1758 75.6001 37.1632C75.4168 37.168 75.2344 37.1367 75.0633 37.0711C74.8923 37.0055 74.736 36.9068 74.6036 36.7808C74.4773 36.6554 74.3771 36.5065 74.3088 36.3426C74.2404 36.1787 74.2053 36.003 74.2053 35.8256C74.2053 35.6482 74.2404 35.4725 74.3088 35.3086C74.3771 35.1447 74.4773 34.9958 74.6036 34.8704C74.7382 34.7425 74.897 34.6425 75.0709 34.5763C75.2447 34.5101 75.4301 34.479 75.6162 34.4848L75.6211 34.4736ZM75.5953 34.9536C75.4814 34.9481 75.3675 34.9663 75.261 35.0071C75.1546 35.0479 75.0579 35.1103 74.9771 35.1904C74.8965 35.2734 74.8337 35.3717 74.7925 35.4795C74.7512 35.5873 74.7324 35.7023 74.7372 35.8176C74.7317 35.931 74.7502 36.0442 74.7915 36.1501C74.8328 36.2559 74.8961 36.3519 74.9771 36.432C75.0616 36.5115 75.1612 36.5734 75.2702 36.6141C75.3791 36.6547 75.4951 36.6733 75.6114 36.6688C75.7275 36.6738 75.8434 36.6553 75.9521 36.6146C76.0609 36.574 76.1602 36.5118 76.2441 36.432C76.3242 36.3503 76.3868 36.2533 76.4281 36.1469C76.4693 36.0404 76.4883 35.9268 76.484 35.8128C76.4872 35.697 76.4658 35.5818 76.4211 35.4749C76.3765 35.3679 76.3096 35.2715 76.2248 35.192C76.1388 35.1117 76.0376 35.0494 75.9269 35.0088C75.8163 34.9681 75.6986 34.9499 75.5808 34.9552L75.5953 34.9536ZM80.8503 34.4928H81.4105L80.2336 37.16H80.0614L79.2789 35.328L78.5061 37.16H78.3323L77.1618 34.4848H77.7269L78.416 36.0848L79.0906 34.4848H79.4802L80.1483 36.0848L80.839 34.4848L80.8503 34.4928ZM83.9173 35.84H82.0545C82.0573 36.0667 82.1485 36.2835 82.3089 36.4448C82.3883 36.5231 82.4829 36.5847 82.587 36.6256C82.691 36.6666 82.8024 36.6862 82.9142 36.6832C83.259 36.6826 83.5943 36.5702 83.869 36.3632V36.872C83.7202 36.9708 83.5574 37.0468 83.386 37.0976C83.2051 37.1468 83.018 37.17 82.8305 37.1664C82.5788 37.1797 82.3289 37.1167 82.1141 36.9856C81.9317 36.864 81.7828 36.699 81.681 36.5056C81.5685 36.2853 81.5131 36.0405 81.52 35.7936C81.5056 35.4366 81.6275 35.0874 81.8613 34.816C81.9731 34.692 82.111 34.5939 82.2651 34.5287C82.4192 34.4635 82.5858 34.4326 82.7533 34.4384C82.9121 34.432 83.0704 34.4616 83.216 34.5251C83.3617 34.5886 83.4908 34.6843 83.5937 34.8048C83.8144 35.0824 83.9255 35.4306 83.906 35.784V35.848L83.9173 35.84ZM82.0738 35.5296H83.4069C83.403 35.3528 83.3369 35.183 83.2201 35.0496C83.1606 34.9928 83.0901 34.9487 83.0129 34.9198C82.9357 34.891 82.8534 34.8779 82.771 34.8816C82.6003 34.8755 82.434 34.9358 82.3073 35.0496C82.179 35.1807 82.0956 35.3486 82.069 35.5296H82.0738ZM85.0475 34.488V35.0832L85.0781 35.0352C85.3324 34.6309 85.5857 34.4288 85.838 34.4288C86.0739 34.4476 86.2943 34.5531 86.4562 34.7248L86.1793 35.1824C86.0493 35.0367 85.8687 34.9452 85.6737 34.9264C85.5865 34.9277 85.5009 34.9501 85.4244 34.9916C85.3478 35.0332 85.2825 35.0926 85.2342 35.1648C85.1098 35.3286 85.044 35.5291 85.0475 35.7344V37.12H84.5242V34.48L85.0475 34.488Z" fill="#4D4E4B"/>
<path fill-rule="evenodd" clip-rule="evenodd" d="M26.2831 35.7103L25.177 37.6095C23.1211 40.9823 19.7434 44.6783 16.1 46.3919C15.72 46.5711 15.4415 46.7039 15.0616 46.8559C14.6916 46.9859 14.3288 47.1355 13.9748 47.3039C21.4435 45.7871 26.9754 42.4703 31.5928 36.9247C35.4149 32.3247 39.3641 24.8575 38.8087 16.4111C38.2742 8.33269 33.6568 2.22389 26.8047 0.513492C19.4729 -1.32011 13.9394 1.95349 9.95633 7.20789C9.66976 7.58389 8.78427 8.86869 8.65869 9.27029C14.0521 6.58709 20.5017 5.39829 25.9385 9.32309C30.6703 12.7407 32.0967 19.6159 30.8635 25.6143C30.147 29.0959 28.7431 31.7503 26.977 34.6559C26.73 34.9956 26.5005 35.3475 26.2895 35.7103H26.2831Z" fill="#E15A11"/>
<path fill-rule="evenodd" clip-rule="evenodd" d="M7.37072 46.9983C6.86519 47.3567 4.8978 46.7407 4.38905 46.6527C5.35504 47.3423 7.39165 47.8943 8.85512 47.9759C11.0914 48.1023 12.0751 47.7151 13.9748 47.3199C14.3305 47.1541 14.6949 47.0072 15.0664 46.8799C15.4464 46.7279 15.7249 46.5951 16.1048 46.4175C19.753 44.6991 23.1308 41.0015 25.1819 37.6335L26.2879 35.7343C26.4119 35.3551 26.6985 34.8367 26.8756 34.4287C28.3423 31.0687 29.4193 27.2655 29.0893 23.5263C28.8913 21.2863 28.3358 19.2911 27.3602 17.6575C24.1724 12.2975 17.4556 10.3135 11.6742 12.8575C8.51703 14.2383 6.52227 16.4943 4.87204 19.3135C4.63377 19.6911 4.47277 20.1439 4.26025 20.4799C4.51302 20.4367 5.25844 19.9727 5.60297 19.8111C7.09897 19.0736 8.69512 18.5567 10.3411 18.2767C14.8652 17.5391 19.6307 18.9887 21.9474 22.8607C23.0342 24.6815 23.3433 27.2911 23.0744 29.7759C22.5914 34.2031 20.3632 38.8207 18.1801 41.4367C17.5599 42.1963 16.8852 42.9101 16.1612 43.5727C15.4326 44.22 14.6512 44.806 13.8251 45.3247C12.2683 46.2751 9.13043 47.4607 7.38521 46.9871L7.37072 46.9983Z" fill="#069139"/>
<path fill-rule="evenodd" clip-rule="evenodd" d="M4.38402 46.6527C4.89278 46.7407 6.86177 47.3663 7.3657 46.9983C6.99078 46.9033 6.64483 46.7188 6.35784 46.4609C6.07084 46.203 5.85146 45.8795 5.71869 45.5183C4.80423 43.4015 5.57863 39.5295 6.09704 37.4351C6.51241 35.7599 6.96642 34.2031 7.49127 32.5887L9.08515 27.9663L2.80625 27.9807C2.42147 28.5759 1.58106 31.8479 1.35727 32.7903C0.286639 37.1199 -0.851613 44.6047 4.38402 46.6527Z" fill="#05559C"/>
<path fill-rule="evenodd" clip-rule="evenodd" d="M2.60986 23.8481L3.07515 24.3521C3.41494 24.0081 3.80523 23.7174 4.23272 23.4897C4.87117 23.1662 5.58825 23.0275 6.30219 23.0894C7.01612 23.1514 7.69816 23.4115 8.27053 23.8401C8.52652 24.0241 8.60702 24.1761 8.85334 24.3201L9.33634 23.8401C9.09645 23.4817 8.47822 23.0401 7.97591 22.7953C7.35718 22.4961 6.6781 22.3406 5.99 22.3406C5.30191 22.3406 4.62283 22.4961 4.0041 22.7953C3.55975 22.9969 2.8417 23.5073 2.62918 23.8465L2.60986 23.8481Z" fill="#05559C"/>
<path fill-rule="evenodd" clip-rule="evenodd" d="M3.42944 24.7232L3.91244 25.256C4.39543 25 5.39844 23.848 7.10341 24.632C7.43318 24.7675 7.7253 24.9798 7.95508 25.2512L8.5073 24.64C7.82789 24.16 7.25474 23.576 5.94422 23.5856C5.46739 23.5863 4.9963 23.6889 4.56293 23.8866C4.12956 24.0843 3.74408 24.3723 3.43266 24.7312L3.42944 24.7232Z" fill="#05559C"/>
<path fill-rule="evenodd" clip-rule="evenodd" d="M4.33149 25.6289L4.84507 26.0337C4.89981 25.9969 4.93201 25.9681 4.97709 25.9377C5.25325 25.731 5.58638 25.6132 5.9318 25.6001C6.64824 25.5841 6.79475 25.8913 7.24876 26.1169L7.59491 25.6369C6.85915 24.7297 5.03827 24.6513 4.32666 25.6369L4.33149 25.6289Z" fill="#05559C"/>
<path fill-rule="evenodd" clip-rule="evenodd" d="M5.12944 26.4497L6.04391 27.3601L6.79898 26.4913C6.20651 25.9361 5.76699 25.9841 5.12622 26.4513L5.12944 26.4497Z" fill="#05559C"/>
<path fill-rule="evenodd" clip-rule="evenodd" d="M42.9107 24.9601C46.2192 24.6401 45.1389 28.1985 43.6819 28.9969C43.0041 29.3633 42.3038 29.2593 41.4537 29.2641L42.9107 24.9681V24.9601ZM39.8598 30.3329C40.8966 30.3649 43.1248 30.4737 43.9347 30.1313C46.2949 29.1425 46.9759 25.7441 45.7942 24.4801C45.0198 23.6497 43.1425 23.8769 42.0059 23.8625L39.855 30.3409L39.8598 30.3329Z" fill="#4D4E4B"/>
<path fill-rule="evenodd" clip-rule="evenodd" d="M49.4396 30.8176C50.2687 30.568 51.2685 31.4448 50.1061 31.672C49.021 31.8832 48.1709 31.2 49.4396 30.8176ZM50.7581 26.9456C51.737 26.6256 51.3683 28.1584 50.8386 28.3856C50.3089 28.6128 50.0481 28.336 50.1528 27.7872C50.2397 27.3376 50.3927 27.064 50.7581 26.9456ZM49.4943 28.9232C49.0805 29.0304 48.802 29.16 48.6603 29.4928C48.5687 29.6648 48.5463 29.865 48.5977 30.0528C48.6491 30.2406 48.7705 30.4019 48.9372 30.504C47.8489 30.9104 47.5044 31.6576 48.0019 32.1536C48.7891 32.944 52.3005 32.5984 51.7048 30.5536C51.4295 29.5936 49.9821 29.9792 49.731 29.4928C49.9708 28.9424 50.5199 29.6112 51.6758 28.8528C52.1991 28.5104 52.4406 27.8768 52.4406 26.9856H53.0604L53.3244 26.0608C51.8529 25.8736 49.7116 25.8496 49.1836 27.4256C49.0853 27.7067 49.0631 28.0085 49.1192 28.3008C49.1368 28.4167 49.1827 28.5266 49.2528 28.6208L49.4927 28.9408L49.4943 28.9232Z" fill="#4D4E4B"/>
<path fill-rule="evenodd" clip-rule="evenodd" d="M77.2661 29.3344C75.4807 29.7216 75.7995 26.9984 78.0357 27.0944C77.9311 27.52 77.4593 29.0656 77.2661 29.3344ZM78.4269 25.9744C76.7912 26.08 75.4823 26.312 74.9993 28.2064C74.431 30.4464 76.4096 30.5808 78.1452 30.2864L80.2768 23.8608H79.1273L78.4269 25.9776V25.9744Z" fill="#4D4E4B"/>
<path fill-rule="evenodd" clip-rule="evenodd" d="M61.5041 27.0401C61.3624 27.5985 61.1402 28.1601 60.9615 28.7281C60.8279 29.1489 60.815 29.1713 60.448 29.3313C59.1197 29.9105 59.4272 28.3985 59.9505 27.7233C60.3015 27.2705 60.6492 26.9729 61.5041 27.0401ZM60.4624 30.0145C60.4799 30.0492 60.4882 30.0878 60.4866 30.1265C60.4866 30.1713 60.4721 30.2593 60.4689 30.3521H61.5508L62.9853 26.0929C61.9758 25.9457 61.2143 25.8561 60.2854 26.2097C57.579 27.2321 57.6337 31.8385 60.4544 30.0193L60.4624 30.0145Z" fill="#4D4E4B"/>
<path fill-rule="evenodd" clip-rule="evenodd" d="M84.9554 27.04C84.8411 27.5712 84.5835 28.1952 84.4161 28.7312C84.1585 29.5632 83.2891 29.5456 83.0975 29.3392C82.7063 28.904 83.1909 26.92 84.9554 27.04ZM83.9137 30.016L83.9266 30.3536H84.9989L86.4317 26.1184C84.5465 25.5872 82.8801 26.3552 82.2072 27.512C81.2508 29.1584 81.8739 31.3904 83.9073 30.0208L83.9137 30.016Z" fill="#4D4E4B"/>
<path fill-rule="evenodd" clip-rule="evenodd" d="M69.8071 30.3361H70.9438L71.6827 28.1601C71.7133 28.0673 71.7375 27.9905 71.7584 27.9217C71.8663 27.5617 71.8325 27.5457 72.2092 27.2721C73.2251 26.5409 73.3748 26.9921 73.1478 27.7521L72.3509 30.3633H73.4231L74.3666 27.6049C74.3937 27.5221 74.4152 27.4377 74.431 27.3521C74.563 26.7457 74.4986 26.1105 73.911 25.9953C73.2396 25.8641 72.6954 26.2321 72.2607 26.4753L72.3718 26.0609L71.2448 26.0385L69.812 30.3505L69.8071 30.3361Z" fill="#4D4E4B"/>
<path fill-rule="evenodd" clip-rule="evenodd" d="M56.4946 26.0209H55.7122L55.3628 26.9697H56.1227C55.9939 27.6609 53.9154 31.3617 57.401 30.1537L57.6151 29.0449C57.4026 29.1423 57.1787 29.2132 56.9486 29.2561C56.1855 29.1921 57.1338 27.4001 57.2787 26.9889L58.1609 26.9713L58.47 26.0225H57.6538L57.9661 25.1329L56.8053 25.1089L56.4946 26.0129V26.0209Z" fill="#4D4E4B"/>
<path fill-rule="evenodd" clip-rule="evenodd" d="M67.3569 30.3234L68.5644 30.3458L70.7508 23.8626L69.5159 23.8594L67.3569 30.3234Z" fill="#4D4E4B"/>
<path fill-rule="evenodd" clip-rule="evenodd" d="M62.6519 30.3266L63.7821 30.3474L65.9555 23.8594H64.8044L62.6519 30.3266Z" fill="#4D4E4B"/>
<path fill-rule="evenodd" clip-rule="evenodd" d="M46.1851 30.3808H47.3394L48.7224 26.0128H47.568L46.1851 30.3808ZM48.7127 24.2368C49.0347 24.2368 49.2183 24.536 49.1345 24.904C49.1012 25.0761 49.014 25.2334 48.8853 25.3532C48.7566 25.4731 48.5931 25.5494 48.4181 25.5712C48.0961 25.5712 47.9093 25.272 47.9931 24.904C48.0275 24.7302 48.1168 24.5719 48.2479 24.4519C48.3791 24.3319 48.5453 24.2566 48.7224 24.2368H48.7127Z" fill="#4D4E4B"/>
<path fill-rule="evenodd" clip-rule="evenodd" d="M52.5386 30.3808H53.6929L55.0759 26.0128H53.9232L52.5386 30.3808ZM55.0662 24.2368C55.3882 24.2368 55.575 24.536 55.4897 24.904C55.4564 25.0761 55.3691 25.2334 55.2404 25.3532C55.1118 25.4731 54.9482 25.5494 54.7732 25.5712C54.4512 25.5712 54.2645 25.272 54.3482 24.904C54.3822 24.7322 54.4696 24.5754 54.5982 24.4556C54.7267 24.3359 54.8899 24.2594 55.0646 24.2368H55.0662Z" fill="#4D4E4B"/>
<path fill-rule="evenodd" clip-rule="evenodd" d="M79.116 30.3808H80.2687L81.6517 26.0128H80.4989L79.116 30.3808ZM81.642 24.2368C81.964 24.2368 82.1492 24.536 82.0654 24.904C82.0312 25.0779 81.942 25.2364 81.8108 25.3564C81.6796 25.4764 81.5133 25.5517 81.3361 25.5712C81.0141 25.5712 80.8306 25.272 80.9143 24.904C80.9487 24.7305 81.0377 24.5723 81.1685 24.4523C81.2994 24.3324 81.4652 24.2569 81.642 24.2368Z" fill="#4D4E4B"/>
<path fill-rule="evenodd" clip-rule="evenodd" d="M85.9522 31.019H52.4985V31.4542H85.9522V31.019Z" fill="#4D4E4B"/>
<path fill-rule="evenodd" clip-rule="evenodd" d="M46.4609 31.0193H39.6313V31.4545H46.4609V31.0193Z" fill="#4D4E4B"/>
</g>
<defs>
<clipPath id="clip0_651_994">
<rect width="86" height="48" fill="white" transform="translate(0.447754)"/>
</clipPath>
</defs>
</svg>
