<svg width="15" height="16" viewBox="0 0 15 16" fill="none" xmlns="http://www.w3.org/2000/svg">
<path d="M14.5 10.875C14.5 11.0408 14.4342 11.1997 14.3169 11.3169C14.1997 11.4342 14.0408 11.5 13.875 11.5H12V12.75H13.25C13.4158 12.75 13.5747 12.8158 13.6919 12.9331C13.8092 13.0503 13.875 13.2092 13.875 13.375C13.875 13.5408 13.8092 13.6997 13.6919 13.8169C13.5747 13.9342 13.4158 14 13.25 14H12V15.25C12 15.4158 11.9342 15.5747 11.8169 15.6919C11.6997 15.8092 11.5408 15.875 11.375 15.875C11.2092 15.875 11.0503 15.8092 10.9331 15.6919C10.8158 15.5747 10.75 15.4158 10.75 15.25V10.875C10.75 10.7092 10.8158 10.5503 10.9331 10.4331C11.0503 10.3158 11.2092 10.25 11.375 10.25H13.875C14.0408 10.25 14.1997 10.3158 14.3169 10.4331C14.4342 10.5503 14.5 10.7092 14.5 10.875ZM4.1875 12.4375C4.1875 13.0177 3.95703 13.5741 3.5468 13.9843C3.13656 14.3945 2.58016 14.625 2 14.625H1.375V15.25C1.375 15.4158 1.30915 15.5747 1.19194 15.6919C1.07473 15.8092 0.91576 15.875 0.75 15.875C0.58424 15.875 0.425269 15.8092 0.308058 15.6919C0.190848 15.5747 0.125 15.4158 0.125 15.25V10.875C0.125 10.7092 0.190848 10.5503 0.308058 10.4331C0.425269 10.3158 0.58424 10.25 0.75 10.25H2C2.58016 10.25 3.13656 10.4805 3.5468 10.8907C3.95703 11.3009 4.1875 11.8573 4.1875 12.4375ZM2.9375 12.4375C2.9375 12.1889 2.83873 11.9504 2.66291 11.7746C2.4871 11.5988 2.24864 11.5 2 11.5H1.375V13.375H2C2.24864 13.375 2.4871 13.2762 2.66291 13.1004C2.83873 12.9246 2.9375 12.6861 2.9375 12.4375ZM9.8125 13.0625C9.8125 13.8084 9.51618 14.5238 8.98874 15.0512C8.46129 15.5787 7.74592 15.875 7 15.875H5.75C5.58424 15.875 5.42527 15.8092 5.30806 15.6919C5.19085 15.5747 5.125 15.4158 5.125 15.25V10.875C5.125 10.7092 5.19085 10.5503 5.30806 10.4331C5.42527 10.3158 5.58424 10.25 5.75 10.25H7C7.74592 10.25 8.46129 10.5463 8.98874 11.0738C9.51618 11.6012 9.8125 12.3166 9.8125 13.0625ZM8.5625 13.0625C8.5625 12.6481 8.39788 12.2507 8.10485 11.9576C7.81183 11.6646 7.4144 11.5 7 11.5H6.375V14.625H7C7.4144 14.625 7.81183 14.4604 8.10485 14.1674C8.39788 13.8743 8.5625 13.4769 8.5625 13.0625ZM0.125 7.75V2.125C0.125 1.79348 0.256696 1.47554 0.491116 1.24112C0.725537 1.0067 1.04348 0.875 1.375 0.875H8.875C8.9571 0.874936 9.03841 0.891047 9.11428 0.922415C9.19015 0.953782 9.2591 0.999791 9.31719 1.05781L13.6922 5.43281C13.7502 5.4909 13.7962 5.55985 13.8276 5.63572C13.859 5.71159 13.8751 5.7929 13.875 5.875V7.75C13.875 7.91576 13.8092 8.07473 13.6919 8.19194C13.5747 8.30915 13.4158 8.375 13.25 8.375C13.0842 8.375 12.9253 8.30915 12.8081 8.19194C12.6908 8.07473 12.625 7.91576 12.625 7.75V6.5H8.875C8.70924 6.5 8.55027 6.43415 8.43306 6.31694C8.31585 6.19973 8.25 6.04076 8.25 5.875V2.125H1.375V7.75C1.375 7.91576 1.30915 8.07473 1.19194 8.19194C1.07473 8.30915 0.91576 8.375 0.75 8.375C0.58424 8.375 0.425269 8.30915 0.308058 8.19194C0.190848 8.07473 0.125 7.91576 0.125 7.75ZM9.5 5.25H11.7414L9.5 3.00859V5.25Z" fill="white"/>
</svg>
